<?xml version="1.0" encoding="UTF-8" standalone="no"?>
<!DOCTYPE svg PUBLIC "-//W3C//DTD SVG 1.1//EN"
 "http://www.w3.org/Graphics/SVG/1.1/DTD/svg11.dtd">
<!-- Generated by graphviz version 2.47.0 (20210316.0004)
 -->
<!-- Title: dependencies Pages: 1 -->
<svg width="569pt" height="211pt"
 viewBox="0.00 0.00 569.00 211.00" xmlns="http://www.w3.org/2000/svg" xmlns:xlink="http://www.w3.org/1999/xlink">
<g id="graph0" class="graph" transform="scale(1 1) rotate(0) translate(4 207)">
<title>dependencies</title>
<polygon fill="white" stroke="transparent" points="-4,4 -4,-207 565,-207 565,4 -4,4"/>
<text text-anchor="start" x="259.51" y="-42.4" font-family="Times-12" font-weight="bold" font-size="14.00">Legend</text>
<polygon fill="#ffffb3" stroke="transparent" points="46.5,-10 46.5,-30 66.5,-30 66.5,-10 46.5,-10"/>
<text text-anchor="start" x="70.13" y="-15.4" font-family="Times-12" font-size="14.00"> &#160;Declarations</text>
<polygon fill="#8dd3c7" stroke="transparent" points="159.5,-10 159.5,-30 179.5,-30 179.5,-10 159.5,-10"/>
<text text-anchor="start" x="183.23" y="-15.4" font-family="Times-12" font-size="14.00"> &#160;Module</text>
<polygon fill="#80b1d3" stroke="transparent" points="245.5,-10 245.5,-30 265.5,-30 265.5,-10 245.5,-10"/>
<text text-anchor="start" x="269.28" y="-15.4" font-family="Times-12" font-size="14.00"> &#160;Bootstrap</text>
<polygon fill="#fdb462" stroke="transparent" points="342.5,-10 342.5,-30 362.5,-30 362.5,-10 342.5,-10"/>
<text text-anchor="start" x="366.17" y="-15.4" font-family="Times-12" font-size="14.00"> &#160;Providers</text>
<polygon fill="#fb8072" stroke="transparent" points="438.5,-10 438.5,-30 458.5,-30 458.5,-10 438.5,-10"/>
<text text-anchor="start" x="462.23" y="-15.4" font-family="Times-12" font-size="14.00"> &#160;Exports</text>
<g id="clust1" class="cluster">
<title>cluster_UtamaModule</title>
<polygon fill="none" stroke="black" stroke-dasharray="1,5" points="8,-70 8,-195 553,-195 553,-70 8,-70"/>
</g>
<g id="clust2" class="cluster">
<title>cluster_UtamaModule_declarations</title>
<polygon fill="none" stroke="black" points="16,-78 16,-130 545,-130 545,-78 16,-78"/>
</g>
<!-- HeaderMobileUtamaComponent -->
<g id="node1" class="node">
<title>HeaderMobileUtamaComponent</title>
<polygon fill="#ffffb3" stroke="black" points="536.5,-122 337.5,-122 337.5,-86 536.5,-86 536.5,-122"/>
<text text-anchor="middle" x="437" y="-99.8" font-family="Times,serif" font-size="14.00">HeaderMobileUtamaComponent</text>
</g>
<!-- UtamaModule -->
<g id="node4" class="node">
<title>UtamaModule</title>
<polygon fill="#8dd3c7" stroke="black" points="288.37,-187 285.37,-191 264.37,-191 261.37,-187 191.63,-187 191.63,-151 288.37,-151 288.37,-187"/>
<text text-anchor="middle" x="240" y="-164.8" font-family="Times,serif" font-size="14.00">UtamaModule</text>
</g>
<!-- HeaderMobileUtamaComponent&#45;&gt;UtamaModule -->
<g id="edge1" class="edge">
<title>HeaderMobileUtamaComponent&#45;&gt;UtamaModule</title>
<path fill="none" stroke="black" d="M437,-122.11C437,-141.34 437,-169 437,-169 437,-169 298.44,-169 298.44,-169"/>
<polygon fill="black" stroke="black" points="298.44,-165.5 288.44,-169 298.44,-172.5 298.44,-165.5"/>
</g>
<!-- HeaderUtamaComponent -->
<g id="node2" class="node">
<title>HeaderUtamaComponent</title>
<polygon fill="#ffffb3" stroke="black" points="319.56,-122 160.44,-122 160.44,-86 319.56,-86 319.56,-122"/>
<text text-anchor="middle" x="240" y="-99.8" font-family="Times,serif" font-size="14.00">HeaderUtamaComponent</text>
</g>
<!-- HeaderUtamaComponent&#45;&gt;UtamaModule -->
<g id="edge2" class="edge">
<title>HeaderUtamaComponent&#45;&gt;UtamaModule</title>
<path fill="none" stroke="black" d="M240,-122.11C240,-122.11 240,-140.99 240,-140.99"/>
<polygon fill="black" stroke="black" points="236.5,-140.99 240,-150.99 243.5,-140.99 236.5,-140.99"/>
</g>
<!-- UtamaComponent -->
<g id="node3" class="node">
<title>UtamaComponent</title>
<polygon fill="#ffffb3" stroke="black" points="142.15,-122 23.85,-122 23.85,-86 142.15,-86 142.15,-122"/>
<text text-anchor="middle" x="83" y="-99.8" font-family="Times,serif" font-size="14.00">UtamaComponent</text>
</g>
<!-- UtamaComponent&#45;&gt;UtamaModule -->
<g id="edge3" class="edge">
<title>UtamaComponent&#45;&gt;UtamaModule</title>
<path fill="none" stroke="black" d="M83,-122.11C83,-141.34 83,-169 83,-169 83,-169 181.61,-169 181.61,-169"/>
<polygon fill="black" stroke="black" points="181.61,-172.5 191.61,-169 181.61,-165.5 181.61,-172.5"/>
</g>
</g>
</svg>
