<?xml version="1.0" encoding="UTF-8" standalone="no"?>
<!DOCTYPE svg PUBLIC "-//W3C//DTD SVG 1.1//EN"
 "http://www.w3.org/Graphics/SVG/1.1/DTD/svg11.dtd">
<!-- Generated by graphviz version 2.47.0 (20210316.0004)
 -->
<!-- Title: dependencies Pages: 1 -->
<svg width="504pt" height="284pt"
 viewBox="0.00 0.00 504.00 284.00" xmlns="http://www.w3.org/2000/svg" xmlns:xlink="http://www.w3.org/1999/xlink">
<g id="graph0" class="graph" transform="scale(1 1) rotate(0) translate(4 280)">
<title>dependencies</title>
<polygon fill="white" stroke="transparent" points="-4,4 -4,-280 500,-280 500,4 -4,4"/>
<text text-anchor="start" x="227.01" y="-42.4" font-family="Times-12" font-weight="bold" font-size="14.00">Legend</text>
<polygon fill="#ffffb3" stroke="transparent" points="14,-10 14,-30 34,-30 34,-10 14,-10"/>
<text text-anchor="start" x="37.63" y="-15.4" font-family="Times-12" font-size="14.00"> &#160;Declarations</text>
<polygon fill="#8dd3c7" stroke="transparent" points="127,-10 127,-30 147,-30 147,-10 127,-10"/>
<text text-anchor="start" x="150.73" y="-15.4" font-family="Times-12" font-size="14.00"> &#160;Module</text>
<polygon fill="#80b1d3" stroke="transparent" points="213,-10 213,-30 233,-30 233,-10 213,-10"/>
<text text-anchor="start" x="236.78" y="-15.4" font-family="Times-12" font-size="14.00"> &#160;Bootstrap</text>
<polygon fill="#fdb462" stroke="transparent" points="310,-10 310,-30 330,-30 330,-10 310,-10"/>
<text text-anchor="start" x="333.67" y="-15.4" font-family="Times-12" font-size="14.00"> &#160;Providers</text>
<polygon fill="#fb8072" stroke="transparent" points="406,-10 406,-30 426,-30 426,-10 406,-10"/>
<text text-anchor="start" x="429.73" y="-15.4" font-family="Times-12" font-size="14.00"> &#160;Exports</text>
<g id="clust1" class="cluster">
<title>cluster_ComponentUtamaModule</title>
<polygon fill="none" stroke="black" stroke-dasharray="1,5" points="57,-70 57,-268 439,-268 439,-70 57,-70"/>
</g>
<g id="clust2" class="cluster">
<title>cluster_ComponentUtamaModule_declarations</title>
<polygon fill="none" stroke="black" points="69,-78 69,-130 428,-130 428,-78 69,-78"/>
</g>
<g id="clust6" class="cluster">
<title>cluster_ComponentUtamaModule_exports</title>
<polygon fill="none" stroke="black" points="65,-208 65,-260 431,-260 431,-208 65,-208"/>
</g>
<!-- HeroUtamaComponent -->
<g id="node1" class="node">
<title>HeroUtamaComponent</title>
<polygon fill="#ffffb3" stroke="black" points="420.13,-122 273.87,-122 273.87,-86 420.13,-86 420.13,-122"/>
<text text-anchor="middle" x="347" y="-99.8" font-family="Times,serif" font-size="14.00">HeroUtamaComponent</text>
</g>
<!-- ComponentUtamaModule -->
<g id="node3" class="node">
<title>ComponentUtamaModule</title>
<polygon fill="#8dd3c7" stroke="black" points="248.2,-187 245.2,-191 224.2,-191 221.2,-187 85.8,-187 85.8,-151 248.2,-151 248.2,-187"/>
<text text-anchor="middle" x="167" y="-164.8" font-family="Times,serif" font-size="14.00">ComponentUtamaModule</text>
</g>
<!-- HeroUtamaComponent&#45;&gt;ComponentUtamaModule -->
<g id="edge1" class="edge">
<title>HeroUtamaComponent&#45;&gt;ComponentUtamaModule</title>
<path fill="none" stroke="black" d="M371.44,-122.02C371.44,-139.37 371.44,-163 371.44,-163 371.44,-163 258.39,-163 258.39,-163"/>
<polygon fill="black" stroke="black" points="258.39,-159.5 248.39,-163 258.39,-166.5 258.39,-159.5"/>
</g>
<!-- SupportUsUtamaComponent -->
<g id="node2" class="node">
<title>SupportUsUtamaComponent</title>
<polygon fill="#ffffb3" stroke="black" points="255.04,-122 76.96,-122 76.96,-86 255.04,-86 255.04,-122"/>
<text text-anchor="middle" x="166" y="-99.8" font-family="Times,serif" font-size="14.00">SupportUsUtamaComponent</text>
</g>
<!-- SupportUsUtamaComponent&#45;&gt;ComponentUtamaModule -->
<g id="edge2" class="edge">
<title>SupportUsUtamaComponent&#45;&gt;ComponentUtamaModule</title>
<path fill="none" stroke="black" d="M167,-122.11C167,-122.11 167,-140.99 167,-140.99"/>
<polygon fill="black" stroke="black" points="163.5,-140.99 167,-150.99 170.5,-140.99 163.5,-140.99"/>
</g>
<!-- HeroUtamaComponent  -->
<g id="node4" class="node">
<title>HeroUtamaComponent </title>
<polygon fill="#fb8072" stroke="black" points="423.13,-252 272.87,-252 272.87,-216 423.13,-216 423.13,-252"/>
<text text-anchor="middle" x="348" y="-229.8" font-family="Times,serif" font-size="14.00">HeroUtamaComponent </text>
</g>
<!-- ComponentUtamaModule&#45;&gt;HeroUtamaComponent  -->
<g id="edge3" class="edge">
<title>ComponentUtamaModule&#45;&gt;HeroUtamaComponent </title>
<path fill="none" stroke="black" stroke-dasharray="5,2" d="M248.43,-175C286.06,-175 322.56,-175 322.56,-175 322.56,-175 322.56,-205.98 322.56,-205.98"/>
<polygon fill="black" stroke="black" points="319.06,-205.98 322.56,-215.98 326.06,-205.98 319.06,-205.98"/>
</g>
<!-- SupportUsUtamaComponent  -->
<g id="node5" class="node">
<title>SupportUsUtamaComponent </title>
<polygon fill="#fb8072" stroke="black" points="255.03,-252 72.97,-252 72.97,-216 255.03,-216 255.03,-252"/>
<text text-anchor="middle" x="164" y="-229.8" font-family="Times,serif" font-size="14.00">SupportUsUtamaComponent </text>
</g>
<!-- ComponentUtamaModule&#45;&gt;SupportUsUtamaComponent  -->
<g id="edge4" class="edge">
<title>ComponentUtamaModule&#45;&gt;SupportUsUtamaComponent </title>
<path fill="none" stroke="black" stroke-dasharray="5,2" d="M167,-187.11C167,-187.11 167,-205.99 167,-205.99"/>
<polygon fill="black" stroke="black" points="163.5,-205.99 167,-215.99 170.5,-205.99 163.5,-205.99"/>
</g>
</g>
</svg>
