<?xml version="1.0" encoding="UTF-8" standalone="no"?>
<!DOCTYPE svg PUBLIC "-//W3C//DTD SVG 1.1//EN"
 "http://www.w3.org/Graphics/SVG/1.1/DTD/svg11.dtd">
<!-- Generated by graphviz version 2.47.0 (20210316.0004)
 -->
<!-- Title: dependencies Pages: 1 -->
<svg width="1324pt" height="284pt"
 viewBox="0.00 0.00 1324.00 284.00" xmlns="http://www.w3.org/2000/svg" xmlns:xlink="http://www.w3.org/1999/xlink">
<g id="graph0" class="graph" transform="scale(1 1) rotate(0) translate(4 280)">
<title>dependencies</title>
<polygon fill="white" stroke="transparent" points="-4,4 -4,-280 1320,-280 1320,4 -4,4"/>
<text text-anchor="start" x="637.01" y="-42.4" font-family="Times-12" font-weight="bold" font-size="14.00">Legend</text>
<polygon fill="#ffffb3" stroke="transparent" points="424,-10 424,-30 444,-30 444,-10 424,-10"/>
<text text-anchor="start" x="447.63" y="-15.4" font-family="Times-12" font-size="14.00"> &#160;Declarations</text>
<polygon fill="#8dd3c7" stroke="transparent" points="537,-10 537,-30 557,-30 557,-10 537,-10"/>
<text text-anchor="start" x="560.73" y="-15.4" font-family="Times-12" font-size="14.00"> &#160;Module</text>
<polygon fill="#80b1d3" stroke="transparent" points="623,-10 623,-30 643,-30 643,-10 623,-10"/>
<text text-anchor="start" x="646.78" y="-15.4" font-family="Times-12" font-size="14.00"> &#160;Bootstrap</text>
<polygon fill="#fdb462" stroke="transparent" points="720,-10 720,-30 740,-30 740,-10 720,-10"/>
<text text-anchor="start" x="743.67" y="-15.4" font-family="Times-12" font-size="14.00"> &#160;Providers</text>
<polygon fill="#fb8072" stroke="transparent" points="816,-10 816,-30 836,-30 836,-10 816,-10"/>
<text text-anchor="start" x="839.73" y="-15.4" font-family="Times-12" font-size="14.00"> &#160;Exports</text>
<g id="clust1" class="cluster">
<title>cluster_ComponentDasborModule</title>
<polygon fill="none" stroke="black" stroke-dasharray="1,5" points="8,-70 8,-268 1308,-268 1308,-70 8,-70"/>
</g>
<g id="clust9" class="cluster">
<title>cluster_ComponentDasborModule_exports</title>
<polygon fill="none" stroke="black" points="77,-208 77,-260 1238,-260 1238,-208 77,-208"/>
</g>
<g id="clust8" class="cluster">
<title>cluster_ComponentDasborModule_imports</title>
<polygon fill="none" stroke="black" points="1166,-78 1166,-130 1300,-130 1300,-78 1166,-78"/>
</g>
<g id="clust2" class="cluster">
<title>cluster_ComponentDasborModule_declarations</title>
<polygon fill="none" stroke="black" points="16,-78 16,-130 1158,-130 1158,-78 16,-78"/>
</g>
<!-- FormPilihSekolahDasborComponent -->
<g id="node1" class="node">
<title>FormPilihSekolahDasborComponent</title>
<polygon fill="#ffffb3" stroke="black" points="1149.65,-122 926.35,-122 926.35,-86 1149.65,-86 1149.65,-122"/>
<text text-anchor="middle" x="1038" y="-99.8" font-family="Times,serif" font-size="14.00">FormPilihSekolahDasborComponent</text>
</g>
<!-- ComponentDasborModule -->
<g id="node6" class="node">
<title>ComponentDasborModule</title>
<polygon fill="#8dd3c7" stroke="black" points="680.81,-187 677.81,-191 656.81,-191 653.81,-187 515.19,-187 515.19,-151 680.81,-151 680.81,-187"/>
<text text-anchor="middle" x="598" y="-164.8" font-family="Times,serif" font-size="14.00">ComponentDasborModule</text>
</g>
<!-- FormPilihSekolahDasborComponent&#45;&gt;ComponentDasborModule -->
<g id="edge1" class="edge">
<title>FormPilihSekolahDasborComponent&#45;&gt;ComponentDasborModule</title>
<path fill="none" stroke="black" d="M955.2,-122.01C955.2,-138.05 955.2,-159 955.2,-159 955.2,-159 690.85,-159 690.85,-159"/>
<polygon fill="black" stroke="black" points="690.85,-155.5 680.85,-159 690.85,-162.5 690.85,-155.5"/>
</g>
<!-- HasilSeleksiSayaDasborComponent -->
<g id="node2" class="node">
<title>HasilSeleksiSayaDasborComponent</title>
<polygon fill="#ffffb3" stroke="black" points="908.46,-122 689.54,-122 689.54,-86 908.46,-86 908.46,-122"/>
<text text-anchor="middle" x="799" y="-99.8" font-family="Times,serif" font-size="14.00">HasilSeleksiSayaDasborComponent</text>
</g>
<!-- HasilSeleksiSayaDasborComponent&#45;&gt;ComponentDasborModule -->
<g id="edge2" class="edge">
<title>HasilSeleksiSayaDasborComponent&#45;&gt;ComponentDasborModule</title>
<path fill="none" stroke="black" d="M689.32,-104C681.25,-104 676.18,-104 676.18,-104 676.18,-104 676.18,-140.89 676.18,-140.89"/>
<polygon fill="black" stroke="black" points="672.68,-140.89 676.18,-150.89 679.68,-140.89 672.68,-140.89"/>
</g>
<!-- KonfirmasiFormPilihSekolahDasborComponent -->
<g id="node3" class="node">
<title>KonfirmasiFormPilihSekolahDasborComponent</title>
<polygon fill="#ffffb3" stroke="black" points="671.91,-122 384.09,-122 384.09,-86 671.91,-86 671.91,-122"/>
<text text-anchor="middle" x="528" y="-99.8" font-family="Times,serif" font-size="14.00">KonfirmasiFormPilihSekolahDasborComponent</text>
</g>
<!-- KonfirmasiFormPilihSekolahDasborComponent&#45;&gt;ComponentDasborModule -->
<g id="edge3" class="edge">
<title>KonfirmasiFormPilihSekolahDasborComponent&#45;&gt;ComponentDasborModule</title>
<path fill="none" stroke="black" d="M593.52,-122.11C593.52,-122.11 593.52,-140.99 593.52,-140.99"/>
<polygon fill="black" stroke="black" points="590.02,-140.99 593.52,-150.99 597.02,-140.99 590.02,-140.99"/>
</g>
<!-- ResponModalComponent -->
<g id="node4" class="node">
<title>ResponModalComponent</title>
<polygon fill="#ffffb3" stroke="black" points="365.88,-122 206.12,-122 206.12,-86 365.88,-86 365.88,-122"/>
<text text-anchor="middle" x="286" y="-99.8" font-family="Times,serif" font-size="14.00">ResponModalComponent</text>
</g>
<!-- ResponModalComponent&#45;&gt;ComponentDasborModule -->
<g id="edge4" class="edge">
<title>ResponModalComponent&#45;&gt;ComponentDasborModule</title>
<path fill="none" stroke="black" d="M318.62,-122.01C318.62,-138.05 318.62,-159 318.62,-159 318.62,-159 505.31,-159 505.31,-159"/>
<polygon fill="black" stroke="black" points="505.31,-162.5 515.31,-159 505.31,-155.5 505.31,-162.5"/>
</g>
<!-- SidebarDasborComponent -->
<g id="node5" class="node">
<title>SidebarDasborComponent</title>
<polygon fill="#ffffb3" stroke="black" points="188.02,-122 23.98,-122 23.98,-86 188.02,-86 188.02,-122"/>
<text text-anchor="middle" x="106" y="-99.8" font-family="Times,serif" font-size="14.00">SidebarDasborComponent</text>
</g>
<!-- SidebarDasborComponent&#45;&gt;ComponentDasborModule -->
<g id="edge5" class="edge">
<title>SidebarDasborComponent&#45;&gt;ComponentDasborModule</title>
<path fill="none" stroke="black" d="M136.62,-122.27C136.62,-140.56 136.62,-166 136.62,-166 136.62,-166 505.25,-166 505.25,-166"/>
<polygon fill="black" stroke="black" points="505.25,-169.5 515.25,-166 505.25,-162.5 505.25,-169.5"/>
</g>
<!-- FormPilihSekolahDasborComponent  -->
<g id="node8" class="node">
<title>FormPilihSekolahDasborComponent </title>
<polygon fill="#fb8072" stroke="black" points="1229.65,-252 1002.35,-252 1002.35,-216 1229.65,-216 1229.65,-252"/>
<text text-anchor="middle" x="1116" y="-229.8" font-family="Times,serif" font-size="14.00">FormPilihSekolahDasborComponent </text>
</g>
<!-- ComponentDasborModule&#45;&gt;FormPilihSekolahDasborComponent  -->
<g id="edge7" class="edge">
<title>ComponentDasborModule&#45;&gt;FormPilihSekolahDasborComponent </title>
<path fill="none" stroke="black" stroke-dasharray="5,2" d="M680.74,-173C817.58,-173 1076.12,-173 1076.12,-173 1076.12,-173 1076.12,-205.7 1076.12,-205.7"/>
<polygon fill="black" stroke="black" points="1072.63,-205.7 1076.12,-215.7 1079.63,-205.7 1072.63,-205.7"/>
</g>
<!-- HasilSeleksiSayaDasborComponent  -->
<g id="node9" class="node">
<title>HasilSeleksiSayaDasborComponent </title>
<polygon fill="#fb8072" stroke="black" points="984.46,-252 761.54,-252 761.54,-216 984.46,-216 984.46,-252"/>
<text text-anchor="middle" x="873" y="-229.8" font-family="Times,serif" font-size="14.00">HasilSeleksiSayaDasborComponent </text>
</g>
<!-- ComponentDasborModule&#45;&gt;HasilSeleksiSayaDasborComponent  -->
<g id="edge8" class="edge">
<title>ComponentDasborModule&#45;&gt;HasilSeleksiSayaDasborComponent </title>
<path fill="none" stroke="black" stroke-dasharray="5,2" d="M680.93,-180C749.31,-180 835.12,-180 835.12,-180 835.12,-180 835.12,-205.72 835.12,-205.72"/>
<polygon fill="black" stroke="black" points="831.63,-205.72 835.12,-215.72 838.63,-205.72 831.63,-205.72"/>
</g>
<!-- KonfirmasiFormPilihSekolahDasborComponent  -->
<g id="node10" class="node">
<title>KonfirmasiFormPilihSekolahDasborComponent </title>
<polygon fill="#fb8072" stroke="black" points="743.41,-252 452.59,-252 452.59,-216 743.41,-216 743.41,-252"/>
<text text-anchor="middle" x="598" y="-229.8" font-family="Times,serif" font-size="14.00">KonfirmasiFormPilihSekolahDasborComponent </text>
</g>
<!-- ComponentDasborModule&#45;&gt;KonfirmasiFormPilihSekolahDasborComponent  -->
<g id="edge9" class="edge">
<title>ComponentDasborModule&#45;&gt;KonfirmasiFormPilihSekolahDasborComponent </title>
<path fill="none" stroke="black" stroke-dasharray="5,2" d="M598,-187.11C598,-187.11 598,-205.99 598,-205.99"/>
<polygon fill="black" stroke="black" points="594.5,-205.99 598,-215.99 601.5,-205.99 594.5,-205.99"/>
</g>
<!-- ResponModalComponent  -->
<g id="node11" class="node">
<title>ResponModalComponent </title>
<polygon fill="#fb8072" stroke="black" points="434.88,-252 271.12,-252 271.12,-216 434.88,-216 434.88,-252"/>
<text text-anchor="middle" x="353" y="-229.8" font-family="Times,serif" font-size="14.00">ResponModalComponent </text>
</g>
<!-- ComponentDasborModule&#45;&gt;ResponModalComponent  -->
<g id="edge10" class="edge">
<title>ComponentDasborModule&#45;&gt;ResponModalComponent </title>
<path fill="none" stroke="black" stroke-dasharray="5,2" d="M515.32,-180C464.67,-180 409.49,-180 409.49,-180 409.49,-180 409.49,-205.72 409.49,-205.72"/>
<polygon fill="black" stroke="black" points="405.99,-205.72 409.49,-215.72 412.99,-205.72 405.99,-205.72"/>
</g>
<!-- SidebarDasborComponent  -->
<g id="node12" class="node">
<title>SidebarDasborComponent </title>
<polygon fill="#fb8072" stroke="black" points="253.02,-252 84.98,-252 84.98,-216 253.02,-216 253.02,-252"/>
<text text-anchor="middle" x="169" y="-229.8" font-family="Times,serif" font-size="14.00">SidebarDasborComponent </text>
</g>
<!-- ComponentDasborModule&#45;&gt;SidebarDasborComponent  -->
<g id="edge11" class="edge">
<title>ComponentDasborModule&#45;&gt;SidebarDasborComponent </title>
<path fill="none" stroke="black" stroke-dasharray="5,2" d="M515.31,-173C406.67,-173 229.54,-173 229.54,-173 229.54,-173 229.54,-205.7 229.54,-205.7"/>
<polygon fill="black" stroke="black" points="226.04,-205.7 229.54,-215.7 233.04,-205.7 226.04,-205.7"/>
</g>
<!-- DirectivesModule -->
<g id="node7" class="node">
<title>DirectivesModule</title>
<polygon fill="#8dd3c7" stroke="black" points="1291.58,-122 1288.58,-126 1267.58,-126 1264.58,-122 1174.42,-122 1174.42,-86 1291.58,-86 1291.58,-122"/>
<text text-anchor="middle" x="1233" y="-99.8" font-family="Times,serif" font-size="14.00">DirectivesModule</text>
</g>
<!-- DirectivesModule&#45;&gt;ComponentDasborModule -->
<g id="edge6" class="edge">
<title>DirectivesModule&#45;&gt;ComponentDasborModule</title>
<path fill="none" stroke="black" d="M1202.02,-122.27C1202.02,-140.56 1202.02,-166 1202.02,-166 1202.02,-166 690.72,-166 690.72,-166"/>
<polygon fill="black" stroke="black" points="690.72,-162.5 680.72,-166 690.72,-169.5 690.72,-162.5"/>
</g>
</g>
</svg>
