<?xml version="1.0" encoding="UTF-8" standalone="no"?>
<!DOCTYPE svg PUBLIC "-//W3C//DTD SVG 1.1//EN"
 "http://www.w3.org/Graphics/SVG/1.1/DTD/svg11.dtd">
<!-- Generated by graphviz version 2.47.0 (20210316.0004)
 -->
<!-- Title: dependencies Pages: 1 -->
<svg width="504pt" height="284pt"
 viewBox="0.00 0.00 504.00 284.00" xmlns="http://www.w3.org/2000/svg" xmlns:xlink="http://www.w3.org/1999/xlink">
<g id="graph0" class="graph" transform="scale(1 1) rotate(0) translate(4 280)">
<title>dependencies</title>
<polygon fill="white" stroke="transparent" points="-4,4 -4,-280 500,-280 500,4 -4,4"/>
<text text-anchor="start" x="227.01" y="-42.4" font-family="Times-12" font-weight="bold" font-size="14.00">Legend</text>
<polygon fill="#ffffb3" stroke="transparent" points="14,-10 14,-30 34,-30 34,-10 14,-10"/>
<text text-anchor="start" x="37.63" y="-15.4" font-family="Times-12" font-size="14.00"> &#160;Declarations</text>
<polygon fill="#8dd3c7" stroke="transparent" points="127,-10 127,-30 147,-30 147,-10 127,-10"/>
<text text-anchor="start" x="150.73" y="-15.4" font-family="Times-12" font-size="14.00"> &#160;Module</text>
<polygon fill="#80b1d3" stroke="transparent" points="213,-10 213,-30 233,-30 233,-10 213,-10"/>
<text text-anchor="start" x="236.78" y="-15.4" font-family="Times-12" font-size="14.00"> &#160;Bootstrap</text>
<polygon fill="#fdb462" stroke="transparent" points="310,-10 310,-30 330,-30 330,-10 310,-10"/>
<text text-anchor="start" x="333.67" y="-15.4" font-family="Times-12" font-size="14.00"> &#160;Providers</text>
<polygon fill="#fb8072" stroke="transparent" points="406,-10 406,-30 426,-30 426,-10 406,-10"/>
<text text-anchor="start" x="429.73" y="-15.4" font-family="Times-12" font-size="14.00"> &#160;Exports</text>
<g id="clust1" class="cluster">
<title>cluster_DirectivesModule</title>
<polygon fill="none" stroke="black" stroke-dasharray="1,5" points="47,-70 47,-268 449,-268 449,-70 47,-70"/>
</g>
<g id="clust6" class="cluster">
<title>cluster_DirectivesModule_exports</title>
<polygon fill="none" stroke="black" points="55,-208 55,-260 441,-260 441,-208 55,-208"/>
</g>
<g id="clust2" class="cluster">
<title>cluster_DirectivesModule_declarations</title>
<polygon fill="none" stroke="black" points="59,-78 59,-130 437,-130 437,-78 59,-78"/>
</g>
<!-- InputHanyaNomorDirective -->
<g id="node1" class="node">
<title>InputHanyaNomorDirective</title>
<polygon fill="#ffffb3" stroke="black" points="428.83,-122 255.17,-122 255.17,-86 428.83,-86 428.83,-122"/>
<text text-anchor="middle" x="342" y="-99.8" font-family="Times,serif" font-size="14.00">InputHanyaNomorDirective</text>
</g>
<!-- DirectivesModule -->
<g id="node3" class="node">
<title>DirectivesModule</title>
<polygon fill="#8dd3c7" stroke="black" points="211.58,-187 208.58,-191 187.58,-191 184.58,-187 94.42,-187 94.42,-151 211.58,-151 211.58,-187"/>
<text text-anchor="middle" x="153" y="-164.8" font-family="Times,serif" font-size="14.00">DirectivesModule</text>
</g>
<!-- InputHanyaNomorDirective&#45;&gt;DirectivesModule -->
<g id="edge1" class="edge">
<title>InputHanyaNomorDirective&#45;&gt;DirectivesModule</title>
<path fill="none" stroke="black" d="M371.05,-122.02C371.05,-139.37 371.05,-163 371.05,-163 371.05,-163 221.72,-163 221.72,-163"/>
<polygon fill="black" stroke="black" points="221.72,-159.5 211.72,-163 221.72,-166.5 221.72,-159.5"/>
</g>
<!-- SidebarDropdownDirective -->
<g id="node2" class="node">
<title>SidebarDropdownDirective</title>
<polygon fill="#ffffb3" stroke="black" points="237.22,-122 66.78,-122 66.78,-86 237.22,-86 237.22,-122"/>
<text text-anchor="middle" x="152" y="-99.8" font-family="Times,serif" font-size="14.00">SidebarDropdownDirective</text>
</g>
<!-- SidebarDropdownDirective&#45;&gt;DirectivesModule -->
<g id="edge2" class="edge">
<title>SidebarDropdownDirective&#45;&gt;DirectivesModule</title>
<path fill="none" stroke="black" d="M153,-122.11C153,-122.11 153,-140.99 153,-140.99"/>
<polygon fill="black" stroke="black" points="149.5,-140.99 153,-150.99 156.5,-140.99 149.5,-140.99"/>
</g>
<!-- InputHanyaNomorDirective  -->
<g id="node4" class="node">
<title>InputHanyaNomorDirective </title>
<polygon fill="#fb8072" stroke="black" points="432.83,-252 255.17,-252 255.17,-216 432.83,-216 432.83,-252"/>
<text text-anchor="middle" x="344" y="-229.8" font-family="Times,serif" font-size="14.00">InputHanyaNomorDirective </text>
</g>
<!-- DirectivesModule&#45;&gt;InputHanyaNomorDirective  -->
<g id="edge3" class="edge">
<title>DirectivesModule&#45;&gt;InputHanyaNomorDirective </title>
<path fill="none" stroke="black" stroke-dasharray="5,2" d="M211.74,-175C257.46,-175 313.2,-175 313.2,-175 313.2,-175 313.2,-205.98 313.2,-205.98"/>
<polygon fill="black" stroke="black" points="309.7,-205.98 313.2,-215.98 316.7,-205.98 309.7,-205.98"/>
</g>
<!-- SidebarDropdownDirective  -->
<g id="node5" class="node">
<title>SidebarDropdownDirective </title>
<polygon fill="#fb8072" stroke="black" points="237.22,-252 62.78,-252 62.78,-216 237.22,-216 237.22,-252"/>
<text text-anchor="middle" x="150" y="-229.8" font-family="Times,serif" font-size="14.00">SidebarDropdownDirective </text>
</g>
<!-- DirectivesModule&#45;&gt;SidebarDropdownDirective  -->
<g id="edge4" class="edge">
<title>DirectivesModule&#45;&gt;SidebarDropdownDirective </title>
<path fill="none" stroke="black" stroke-dasharray="5,2" d="M153,-187.11C153,-187.11 153,-205.99 153,-205.99"/>
<polygon fill="black" stroke="black" points="149.5,-205.99 153,-215.99 156.5,-205.99 149.5,-205.99"/>
</g>
</g>
</svg>
