<?xml version="1.0" encoding="UTF-8" standalone="no"?>
<!DOCTYPE svg PUBLIC "-//W3C//DTD SVG 1.1//EN"
 "http://www.w3.org/Graphics/SVG/1.1/DTD/svg11.dtd">
<!-- Generated by graphviz version 2.47.0 (20210316.0004)
 -->
<!-- Title: dependencies Pages: 1 -->
<svg width="504pt" height="211pt"
 viewBox="0.00 0.00 504.00 211.00" xmlns="http://www.w3.org/2000/svg" xmlns:xlink="http://www.w3.org/1999/xlink">
<g id="graph0" class="graph" transform="scale(1 1) rotate(0) translate(4 207)">
<title>dependencies</title>
<polygon fill="white" stroke="transparent" points="-4,4 -4,-207 500,-207 500,4 -4,4"/>
<text text-anchor="start" x="227.01" y="-42.4" font-family="Times-12" font-weight="bold" font-size="14.00">Legend</text>
<polygon fill="#ffffb3" stroke="transparent" points="14,-10 14,-30 34,-30 34,-10 14,-10"/>
<text text-anchor="start" x="37.63" y="-15.4" font-family="Times-12" font-size="14.00"> &#160;Declarations</text>
<polygon fill="#8dd3c7" stroke="transparent" points="127,-10 127,-30 147,-30 147,-10 127,-10"/>
<text text-anchor="start" x="150.73" y="-15.4" font-family="Times-12" font-size="14.00"> &#160;Module</text>
<polygon fill="#80b1d3" stroke="transparent" points="213,-10 213,-30 233,-30 233,-10 213,-10"/>
<text text-anchor="start" x="236.78" y="-15.4" font-family="Times-12" font-size="14.00"> &#160;Bootstrap</text>
<polygon fill="#fdb462" stroke="transparent" points="310,-10 310,-30 330,-30 330,-10 310,-10"/>
<text text-anchor="start" x="333.67" y="-15.4" font-family="Times-12" font-size="14.00"> &#160;Providers</text>
<polygon fill="#fb8072" stroke="transparent" points="406,-10 406,-30 426,-30 426,-10 406,-10"/>
<text text-anchor="start" x="429.73" y="-15.4" font-family="Times-12" font-size="14.00"> &#160;Exports</text>
<g id="clust1" class="cluster">
<title>cluster_HasilSeleksiModule</title>
<polygon fill="none" stroke="black" stroke-dasharray="1,5" points="38,-70 38,-195 458,-195 458,-70 38,-70"/>
</g>
<g id="clust2" class="cluster">
<title>cluster_HasilSeleksiModule_declarations</title>
<polygon fill="none" stroke="black" points="46,-78 46,-130 450,-130 450,-78 46,-78"/>
</g>
<!-- FormHasilSeleksiUtamaComponent -->
<g id="node1" class="node">
<title>FormHasilSeleksiUtamaComponent</title>
<polygon fill="#ffffb3" stroke="black" points="442.47,-122 223.53,-122 223.53,-86 442.47,-86 442.47,-122"/>
<text text-anchor="middle" x="333" y="-99.8" font-family="Times,serif" font-size="14.00">FormHasilSeleksiUtamaComponent</text>
</g>
<!-- HasilSeleksiModule -->
<g id="node3" class="node">
<title>HasilSeleksiModule</title>
<polygon fill="#8dd3c7" stroke="black" points="295.54,-187 292.54,-191 271.54,-191 268.54,-187 166.46,-187 166.46,-151 295.54,-151 295.54,-187"/>
<text text-anchor="middle" x="231" y="-164.8" font-family="Times,serif" font-size="14.00">HasilSeleksiModule</text>
</g>
<!-- FormHasilSeleksiUtamaComponent&#45;&gt;HasilSeleksiModule -->
<g id="edge1" class="edge">
<title>FormHasilSeleksiUtamaComponent&#45;&gt;HasilSeleksiModule</title>
<path fill="none" stroke="black" d="M259.64,-122.11C259.64,-122.11 259.64,-140.99 259.64,-140.99"/>
<polygon fill="black" stroke="black" points="256.14,-140.99 259.64,-150.99 263.14,-140.99 256.14,-140.99"/>
</g>
<!-- HasilSeleksiComponent -->
<g id="node2" class="node">
<title>HasilSeleksiComponent</title>
<polygon fill="#ffffb3" stroke="black" points="205.82,-122 54.18,-122 54.18,-86 205.82,-86 205.82,-122"/>
<text text-anchor="middle" x="130" y="-99.8" font-family="Times,serif" font-size="14.00">HasilSeleksiComponent</text>
</g>
<!-- HasilSeleksiComponent&#45;&gt;HasilSeleksiModule -->
<g id="edge2" class="edge">
<title>HasilSeleksiComponent&#45;&gt;HasilSeleksiModule</title>
<path fill="none" stroke="black" d="M185.95,-122.11C185.95,-122.11 185.95,-140.99 185.95,-140.99"/>
<polygon fill="black" stroke="black" points="182.45,-140.99 185.95,-150.99 189.45,-140.99 182.45,-140.99"/>
</g>
</g>
</svg>
